<svg xmlns="http://www.w3.org/2000/svg" xmlns:xlink="http://www.w3.org/1999/xlink" width="512" zoomAndPan="magnify" viewBox="0 0 384 383.999986" height="512" preserveAspectRatio="xMidYMid meet" version="1.0"><defs><g/><clipPath id="c6328c9e0a"><path d="M 0 0 L 384 0 L 384 380.667969 L 0 380.667969 Z M 0 0 " clip-rule="nonzero"/></clipPath><clipPath id="4369eedea8"><path d="M 192 0 C 85.960938 0 0 85.214844 0 190.335938 C 0 295.453125 85.960938 380.667969 192 380.667969 C 298.039062 380.667969 384 295.453125 384 190.335938 C 384 85.214844 298.039062 0 192 0 Z M 192 0 " clip-rule="nonzero"/></clipPath></defs><g clip-path="url(#c6328c9e0a)"><g clip-path="url(#4369eedea8)"><path fill="#282c33" d="M 0 0 L 383.644531 0 L 383.644531 380.667969 L 0 380.667969 Z M 0 0 " fill-opacity="1" fill-rule="nonzero"/></g></g><g fill="#ffffff" fill-opacity="1"><g transform="translate(79.066466, 268.404478)"><g><path d="M 142.296875 -163.53125 L 123.1875 0 L 82.953125 0 L 71.03125 -116.9375 L 57.9375 0 L 16.984375 0 L -0.703125 -163.53125 L 35.515625 -163.53125 L 41.0625 -33.03125 L 54.625 -144.65625 L 87.90625 -144.65625 L 100.53125 -33.03125 L 108.671875 -163.53125 Z M 142.296875 -163.53125 "/></g></g></g><g fill="#ffffff" fill-opacity="1"><g transform="translate(309.455023, 106.057217)"><g><path d="M -41.65625 173.203125 C -34.644531 173.203125 -28.941406 175.328125 -24.546875 179.578125 C -20.148438 183.835938 -17.953125 189.332031 -17.953125 196.0625 C -17.953125 202.695312 -20.148438 208.140625 -24.546875 212.390625 C -28.941406 216.648438 -34.644531 218.78125 -41.65625 218.78125 C -46.332031 218.78125 -50.492188 217.796875 -54.140625 215.828125 C -57.785156 213.867188 -60.613281 211.179688 -62.625 207.765625 C -64.632812 204.359375 -65.640625 200.457031 -65.640625 196.0625 C -65.640625 191.664062 -64.632812 187.738281 -62.625 184.28125 C -60.613281 180.820312 -57.785156 178.109375 -54.140625 176.140625 C -50.492188 174.179688 -46.332031 173.203125 -41.65625 173.203125 Z M -22.296875 0 L -22.296875 154.6875 L -61.140625 154.6875 L -61.140625 0 Z M -22.296875 0 "/></g></g></g></svg>